<svg version="1.1" xmlns="http://www.w3.org/2000/svg" style="display: block;" viewBox="139.4838 49.3588 1815.6399 1939.8806" width="1815.6399" height="1939.8806" preserveAspectRatio="xMidYMid meet">
<path transform="translate(0,0)" fill="rgb(195,141,57)" d="M 1012.09 50.4067 C 1026.27 49.3505 1101.72 48.1744 1112.25 52.8816 C 1115.18 58.1105 1116.3 67.63 1117.38 73.622 C 1124.9 115.114 1130.65 157.608 1139.97 198.714 C 1176.65 203.134 1212.93 210.484 1248.44 220.693 C 1268.58 197.363 1288.01 167.555 1307.56 143.206 C 1316.45 132.124 1323.92 120.904 1333.99 110.453 C 1358.28 118.195 1416.13 142.68 1439.22 155.628 C 1434.09 185.157 1430.03 215.503 1425.61 245.159 C 1423.44 259.715 1420.26 274.979 1418.59 289.322 C 1453.26 309.581 1474.1 322.302 1506.94 345.7 L 1577.01 299.176 C 1590.14 290.484 1609.06 277.368 1622.84 270.524 C 1629.12 275.443 1639.16 285.091 1645.33 290.738 C 1666.27 309.936 1686.55 329.848 1706.13 350.439 C 1685.02 390.424 1660.72 431.134 1639.05 471.341 C 1641.84 475.198 1644.93 479.14 1647.9 482.897 C 1666.71 506.75 1683.74 531.643 1701.06 556.605 C 1743.11 546.287 1787.97 536.055 1830.2 526.538 C 1841.61 541.417 1871.98 611.415 1881 632.142 C 1851.3 661.773 1813.46 693.161 1782.11 722.696 C 1793.37 754.88 1802.68 787.712 1809.99 821.014 C 1852.42 828.176 1900.28 830.318 1942.66 839.236 C 1946.96 876.743 1951.85 916.31 1954.55 953.943 C 1943.34 960.132 1921.02 968.442 1908.5 973.452 C 1883.17 983.546 1857.99 994.004 1832.97 1004.82 C 1832.93 1038.1 1832.21 1071.38 1830.81 1104.63 C 1865.65 1125.21 1910.97 1143.64 1947.48 1164.12 C 1942.87 1189.07 1938.04 1213.98 1932.98 1238.84 C 1930.59 1250.49 1927.69 1266.49 1924.28 1277.57 C 1885.91 1280.4 1835.49 1281.89 1796.65 1282.98 C 1784.74 1317.91 1773.52 1346.54 1760.59 1380.79 C 1767.53 1389.65 1779.15 1400.45 1787.4 1408.5 L 1829.19 1449.22 C 1835.64 1455.5 1847.79 1466.7 1852.58 1473.67 C 1835.23 1503.43 1814.74 1544.3 1796.06 1572.12 C 1755.32 1560.1 1713.63 1550.27 1673.08 1537.87 C 1653.68 1564.87 1630.36 1592.73 1608.75 1617.95 C 1622.54 1648.66 1638.02 1678.86 1651.99 1709.52 C 1655.26 1716.71 1660.27 1725.7 1661.92 1733.26 C 1658.52 1742.08 1589.15 1800.16 1577.11 1809.32 C 1571 1805.43 1564.96 1801.38 1559.08 1797.14 C 1530.4 1776.46 1500.46 1757.25 1472.64 1735.43 C 1443.88 1754.78 1419.68 1768.77 1389.75 1786 C 1393.71 1826.19 1398.85 1867.12 1403.13 1907.43 C 1395.16 1912.48 1378.19 1919.16 1369.04 1922.95 C 1346.09 1932.59 1322.91 1941.66 1299.51 1950.15 C 1275.54 1920.27 1248.44 1879.77 1226.44 1847.82 C 1213.31 1851.04 1200.54 1854.13 1187.27 1856.72 C 1170.91 1859.91 1153.66 1862.05 1137.49 1865.75 C 1127.06 1903.34 1120.14 1952.28 1108.45 1987.81 C 1095.02 1988.43 1081.58 1988.84 1068.14 1989.04 C 1041.66 1989.22 1015.18 1989.05 988.699 1988.53 C 979.454 1950.68 969.601 1903.83 961.778 1865.47 C 934.946 1860.63 895.874 1854.62 870.57 1847.29 L 795.935 1950.21 C 764.964 1939.02 720.639 1921.78 691.736 1907.35 C 692.114 1901.25 692.836 1895.2 693.684 1889.15 C 698.515 1854.67 701.718 1819.99 706.661 1785.53 C 693.644 1777.13 678.797 1769.46 665.435 1761.28 C 650.304 1752.02 635.926 1742.54 621.172 1732.68 C 588.457 1758.01 550.747 1784.64 517.087 1809.06 C 487.13 1785.19 458.075 1760.21 429.984 1734.17 C 448.165 1694.65 466.699 1655.3 485.584 1616.12 C 462.676 1592.58 440.798 1563.12 421.042 1536.82 C 409.067 1539.08 387.096 1546.03 374.801 1549.53 C 349.498 1556.53 324.272 1563.8 299.126 1571.35 C 288.293 1557.65 275.556 1534.1 266.492 1518.32 C 259.433 1506.04 247.157 1485.39 241.695 1473.05 C 271.151 1441.62 304.699 1409.01 333.033 1377.84 C 320.182 1345.29 309.772 1316.72 299.6 1283.08 C 256.318 1281.08 211.211 1281.75 168.279 1279.21 C 164.373 1265.92 160.227 1242.42 157.538 1228.24 C 153.533 1207.14 147.422 1179.9 145.418 1158.87 C 154.04 1152.66 172.919 1144.53 182.802 1139.57 C 209.142 1126.34 238.53 1114.21 264.25 1099.97 C 260.396 1074.46 261.139 1025.33 261.769 998.591 L 184.08 966.781 C 171.194 961.505 151.746 954.221 139.824 947.82 C 139.951 938.278 142.187 919.917 143.376 909.972 C 146.373 884.91 149.205 857.096 153.995 832.508 C 165.432 829.642 186.419 828.22 198.786 826.821 C 227.75 823.544 257.255 821.488 286.169 817.7 C 295.84 783.161 303.194 756.73 315.102 722.671 C 283.458 693.646 244.262 663.842 214.119 633.805 C 221.703 614.31 255.663 539.934 266.927 527.138 C 306.437 534.354 358.166 548.171 398.104 557.786 C 420.142 524.956 437.808 500.959 462.806 470.151 C 442.837 431.471 415.047 389.875 395.252 350.481 C 412.655 330.965 460.586 286.044 480.348 270.745 C 489.627 275.482 506.854 287.752 516.353 293.792 C 543.229 310.878 569.866 329.973 596.92 346.734 C 626.579 325.2 651.752 310.704 682.126 291.331 C 677.791 268.037 674.288 243.036 670.582 219.546 C 667.648 200.957 663.608 178.883 661.668 160.375 C 670.95 154.649 686.749 148.137 697.124 143.591 C 720.493 133.354 744.039 123.526 767.752 114.114 C 775.975 122.265 790.681 142.502 798.404 152.659 L 851.502 222.766 C 881.081 213.737 927.535 205.248 957.836 200.712 C 966.985 152.118 974.894 101.256 983.812 52.2122 C 993.155 51.7532 1002.73 51.0146 1012.09 50.4067 z M 1064.89 1728.3 C 1232.3 1724.46 1380.9 1653.32 1496.11 1532.94 C 1626.33 1394.42 1696.63 1210.11 1691.75 1020.06 C 1687.45 833.166 1618.13 652.294 1481.48 522.252 C 1362.06 406.961 1201.43 344.309 1035.49 348.294 C 1033.12 348.331 1030.76 348.415 1028.4 348.546 C 862.119 355.459 705.358 427.996 592.457 550.266 C 463.517 690.109 395.85 875.707 404.528 1065.72 C 411.003 1252.68 490.953 1429.53 627.024 1557.9 C 751.176 1672.88 896.015 1730.16 1064.89 1728.3 z"/>
</svg>