<svg version="1.1" xmlns="http://www.w3.org/2000/svg" style="display: block;" viewBox="8.6295 14.382 1989.9609 2016.3596" width="1989.9609" height="2016.3596" preserveAspectRatio="xMidYMid meet">
<path transform="translate(0,0)" fill="rgb(243,173,64)" d="M 1004.5 300.806 C 1006.39 303.251 1009.14 319.724 1010.03 323.97 C 1012.63 336.245 1015.46 345.538 1020.58 356.981 C 1104.26 361.611 1161.36 371.406 1239.42 401.77 C 1241.41 395.631 1241.7 392.928 1247 389.712 C 1250.69 389.503 1249.07 388.99 1251.98 391.405 C 1254.29 396.978 1252.17 400.692 1250.15 406.253 C 1293.76 424.27 1335.15 447.239 1373.52 474.709 C 1386.67 484.123 1399.46 494.04 1411.85 504.438 C 1426 516.427 1440.39 529.794 1453.59 542.87 C 1476.09 565.159 1492.39 553.263 1516.81 541.603 C 1508.85 554.116 1500.45 570.952 1498.06 585.554 C 1500.2 589.73 1506.18 598.975 1509.16 602.724 C 1601.78 719.262 1642.17 849.141 1650.19 995.934 C 1668.47 1011.53 1691.16 1013.52 1714.2 1017.19 C 1698.1 1021.21 1679.24 1022.71 1663.76 1029.01 C 1656.7 1031.89 1652.67 1035.08 1650.79 1042.36 C 1647.61 1054.67 1648.18 1067.02 1647.39 1079.67 C 1646.59 1091.31 1645.35 1102.91 1643.66 1114.46 C 1634.32 1179.51 1622.35 1217.54 1599.68 1277.97 C 1605.58 1280.29 1609.84 1281.37 1615.96 1282.97 C 1580.69 1370.9 1533.32 1443.65 1463.81 1508.78 C 1401.18 1567.18 1326.93 1611.69 1245.91 1639.4 C 1238.72 1641.89 1207.68 1655.29 1202.41 1647.02 C 1197.73 1639.69 1178.85 1647.58 1172.39 1649.48 C 1124.69 1663.5 1072.59 1668.23 1023.07 1670.66 C 1009.76 1691.73 1010.84 1707.68 1003.68 1731.35 L 1000.26 1715.92 C 997.998 1698.94 994.194 1686.19 986.796 1670.94 C 965.93 1666.92 935.04 1666.75 911.845 1663.53 C 858.429 1656.12 814.881 1641.93 764.63 1623.78 C 762.615 1629.49 762.172 1633.24 756.949 1635.97 C 752.799 1635.45 754.445 1636.31 751.618 1633.79 C 750.681 1629.57 752.502 1621.6 750.359 1619.91 C 742.988 1614.09 725.038 1605.32 717.063 1601.67 C 650.538 1571.25 596.409 1525.11 543.881 1475.31 C 521.424 1472.11 511.363 1478.94 492.096 1488.81 C 501.149 1472.13 509.215 1461.03 509.144 1441.99 C 493.542 1415.02 470.006 1388.28 452.469 1359.68 C 386.505 1252.09 366.462 1159.21 356.923 1035.86 C 339.542 1023.7 316.442 1020.62 295.841 1016.61 C 320.441 1012.26 337.048 1011.66 356.887 996.298 C 358 987.573 358.079 976.199 358.673 967.16 C 359.69 952.011 361.211 936.901 363.235 921.854 C 377.794 814.863 423.02 700.653 490.417 615.278 C 517.594 580.85 511.307 578.328 492.213 541.316 C 501.804 546.079 531.048 560.489 538.675 555.122 C 553.796 544.483 579.284 517.991 594.127 505.623 C 627.942 477.282 664.734 452.697 703.857 432.301 C 721.706 422.972 739.664 415.177 757.975 406.883 C 760.756 405.623 757.107 394.998 759.486 390.668 C 762.866 389.128 761.171 389.258 764.744 390.26 C 768.314 393.555 769.434 396.521 771.659 400.833 C 830.152 376.127 922.714 358.87 986.434 357.908 C 1000.19 335.528 996.139 323.137 1004.5 300.806 z M 891.239 380.458 C 893.894 389.586 897.409 399.43 893.412 408.533 L 891.343 410.076 C 881.978 407.375 881.852 390.211 881.286 382.15 C 840.842 391.653 814.732 399.143 775.943 413.295 C 780.662 425.408 790.876 448.012 786.794 460.346 L 785.383 461.129 C 775.126 456.519 768.263 428.53 764.044 417.768 C 693.886 448.319 629.474 487.3 574.892 541.458 C 569.959 546.353 556.001 559.19 554.358 564.576 C 548.429 584.009 571.401 603.323 575.645 622.42 L 574.247 621.875 C 558.663 615.685 536.269 597.11 520.237 602.045 C 513.938 603.984 502.965 620.079 498.583 626.049 C 463.548 673.1 435.047 724.678 413.856 779.379 C 399.909 815.476 392.457 843.729 383.73 880.814 C 396.014 881.775 414.522 881.566 423.827 889.059 L 424.837 891.203 C 419.837 901.468 390.821 892.284 382.43 889.648 C 375.001 931.076 373.818 954.113 371.653 995.269 C 388.461 1011.02 397.054 1007.99 417.997 1010.4 C 431.532 1011.96 488.836 1004.24 493.984 1016.67 C 482.243 1034.88 368.706 998.065 371.672 1049.44 C 373.295 1077.55 375.634 1108.37 381.191 1135.92 L 381.489 1137.36 C 391.509 1135.42 415.952 1129.61 424.051 1136.14 C 424.221 1145.64 390.761 1148.32 383.399 1149.32 C 405.736 1236.69 434.378 1319.78 490.564 1391.7 C 502.104 1406.47 513.094 1432.75 536.351 1425.76 C 549.749 1421.74 560.064 1410.03 573.847 1407.75 L 574.639 1408.51 C 570.103 1424.89 547.412 1452.64 556.963 1468.5 C 561.744 1476.44 574.924 1487.33 582.186 1493.79 C 634.609 1540.53 694.03 1578.77 758.288 1607.12 C 762.028 1595.22 770.219 1565.99 780.002 1559.29 L 781.838 1559.54 C 787.037 1568.54 773.199 1601.24 769.253 1611.19 C 810.524 1626.92 834.618 1634.09 877.575 1644.05 C 878.324 1636.41 881.088 1607.99 890.714 1607.61 C 897.508 1614.4 891.26 1637.5 889.312 1646.34 C 921.05 1651.62 949.577 1653.72 981.596 1656.81 C 1014.94 1611.77 988.847 1583.32 1001.75 1534.13 C 1002.29 1532.07 1004.12 1531.05 1006.09 1530.76 C 1011.02 1536.03 1009.42 1571.54 1009.37 1581.08 C 1008.54 1614.28 1005.77 1628.09 1025.54 1655.93 C 1056.25 1656.02 1086.9 1653.46 1117.17 1648.28 C 1114.28 1635.93 1110.06 1620.63 1113.06 1608.25 L 1114.6 1606.49 C 1123.46 1609.9 1125.92 1637.04 1127.68 1646.11 C 1152.8 1640.82 1172.51 1636.48 1197.15 1629.05 C 1196.08 1623.78 1194.35 1618.97 1196.96 1614.27 C 1207.92 1606.95 1236.65 1600.86 1251.06 1594.87 C 1275.17 1584.86 1298.95 1574.41 1321.79 1561.67 C 1415.69 1509.91 1493.29 1432.98 1545.88 1339.55 C 1557.3 1319.13 1565.96 1299.27 1575.46 1277.95 C 1580.37 1266.94 1586.43 1275.97 1590.37 1266.36 C 1605.85 1228.59 1615.52 1188.84 1624.02 1149.35 C 1615.28 1148.3 1580.27 1146.16 1576.54 1137.62 C 1580.9 1127.38 1617.31 1135.35 1626.36 1137 C 1630.5 1105.78 1635.83 1069.31 1636.34 1037.97 C 1616.4 1019.62 1606.3 1021.56 1580.54 1021.75 C 1560.52 1021.89 1539.54 1023.04 1519.66 1021.16 C 1516.68 1020.85 1515.58 1018.73 1515.13 1016.16 C 1519.34 1007.12 1539.7 1008.93 1548.23 1009.5 C 1581.16 1011.69 1611.16 1017.52 1637.33 993.095 C 1634.16 957.364 1630.22 926.901 1625.76 891.577 C 1616.04 893.333 1591.6 898.297 1583.1 892.553 L 1582.86 890.59 C 1589.24 883.094 1614.2 881.747 1623.87 880.77 C 1602.82 793.295 1574.56 714.11 1520.65 640.971 C 1510.76 627.56 1504.29 614.64 1490.1 604.797 C 1469.45 590.477 1447.3 622.344 1436.08 621.53 L 1433.52 619.797 C 1432.29 605.869 1471.28 575.175 1446.75 554.281 C 1432.42 542.074 1418.57 527.914 1403.79 515.512 C 1356.24 475.405 1302.89 442.738 1245.55 418.625 C 1242.67 428.359 1234.97 456.592 1225.88 460.619 C 1217.14 456.073 1232.08 421.658 1235.14 413.926 C 1199.6 399.254 1162.62 388.333 1124.81 381.342 C 1123.82 391.14 1123.47 402.909 1116.41 410.293 L 1114.12 410.733 C 1107.39 404.05 1111.95 387.607 1113.81 379.03 C 1079.34 374.225 1058.83 371.597 1024.18 371.469 C 999.764 407.714 1012.36 433.001 1009.3 473.853 C 1009.02 477.62 1007.04 481.814 1003.18 482.878 C 985.848 471.437 1015.36 408.161 983.733 371.503 L 972.625 371.479 C 942.982 372.769 920.393 375.609 891.239 380.458 z"/>
<path transform="translate(0,0)" fill="rgb(243,173,64)" d="M 1003.32 518.717 C 1007.09 523.442 1014.74 629.052 1015.86 641.744 C 1021.2 703.003 1027.28 764.195 1034.1 825.307 C 1037.9 859.613 1041.46 895.509 1047.07 929.424 C 1100.48 886.402 1153.27 842.601 1205.4 798.034 C 1190.23 822.595 1173.59 842.982 1155.98 865.816 C 1131.05 897.553 1106.75 929.775 1083.08 962.463 C 1149.79 975.289 1217.02 985.177 1284.59 992.098 C 1332.48 996.95 1400.27 1001.02 1445.49 1010.33 C 1324.43 1023.9 1202.59 1031.95 1083.51 1060.55 C 1125.23 1114.49 1169.34 1160.68 1207.67 1217.52 C 1187.31 1203.67 1165.03 1182.85 1145.81 1166.64 L 1047.21 1083.86 C 1029.58 1170.28 1024.36 1268.01 1014.92 1356.07 C 1011.04 1392.33 1011.5 1428.87 1004.09 1464.8 C 1003.78 1465.4 1003.2 1465.82 1002.73 1466.3 C 1000.84 1460.83 997.51 1400.6 996.935 1392.01 C 994.788 1362.35 992.307 1332.73 989.493 1303.13 C 982.583 1228.65 973.061 1158.28 963.413 1084.38 C 928.789 1114.29 892.74 1142.79 858.04 1172.63 C 839.506 1188.57 821.431 1203.58 801.658 1217.95 C 816.714 1195.81 833.051 1175.7 849.361 1154.56 L 924.27 1057.69 C 892.372 1050.17 859.008 1046.09 826.499 1041.58 C 773.382 1033.83 720.126 1027.06 666.758 1021.27 C 631.744 1017.45 598.78 1015.5 563.816 1010.34 C 597.88 1004.23 636.245 1001.86 671.138 997.954 C 757.324 988.3 840.88 980.226 925.95 962.65 L 861.889 878.263 C 841.734 852.187 820.562 826.534 803.312 798.533 C 856.722 838.967 908.49 885.366 962.703 927.182 C 967.314 896.868 970.891 861.066 974.29 830.379 C 981.417 766.092 987.727 701.717 993.218 637.27 C 995.233 614.276 996.995 591.261 998.505 568.228 C 999.537 553.391 1000.5 533.079 1003.32 518.717 z"/>
<path transform="translate(0,0)" fill="rgb(249,185,92)" d="M 888.648 887.804 C 896.586 889.649 934.324 931.592 943.147 939.316 C 947.454 943.087 948.772 945 948.702 950.425 L 946.753 950.657 C 942.678 949.426 893.884 894.704 888.648 887.804 z"/>
<path transform="translate(0,0)" fill="rgb(249,185,92)" d="M 944.245 1067.73 C 945.292 1068.9 944.776 1068.12 945.391 1070.29 C 940.346 1079.79 905.97 1111.48 895.843 1121.07 L 895.244 1120.46 C 895.588 1115.24 937.699 1074.13 944.245 1067.73 z"/>
<path transform="translate(0,0)" fill="rgb(249,185,92)" d="M 1064.05 1069.55 C 1071.73 1070.98 1106.21 1109.03 1111.16 1117.32 C 1107.11 1116.16 1066.29 1074.01 1064.05 1069.55 z"/>
<path transform="translate(0,0)" fill="rgb(249,185,92)" d="M 1406.5 749.016 C 1412.78 776.755 1416.72 787.755 1446.04 797.147 C 1431.17 803.199 1420.17 807.172 1413.04 823.234 C 1411.08 827.643 1409.03 836.643 1406.42 839.149 C 1404.24 837.666 1404.71 837.118 1403.67 833.938 C 1394.6 808.05 1391.01 807.272 1366.44 797.323 C 1374.22 795.197 1388.99 788.9 1394.19 782.696 C 1401.3 768.907 1402.88 764.157 1406.5 749.016 z"/>
<path transform="translate(0,0)" fill="rgb(243,173,64)" d="M 1406.5 749.016 C 1412.78 776.755 1416.72 787.755 1446.04 797.147 C 1431.17 803.199 1420.17 807.172 1413.04 823.234 C 1411.08 827.643 1409.03 836.643 1406.42 839.149 C 1404.24 837.666 1404.71 837.118 1403.67 833.938 C 1412.32 825.196 1400.25 817.905 1426.03 799.051 C 1416.98 789.846 1414.1 785.989 1407.14 774.989 C 1402.25 778.378 1399.74 780.284 1394.19 782.696 C 1401.3 768.907 1402.88 764.157 1406.5 749.016 z"/>
<path transform="translate(0,0)" fill="rgb(243,173,64)" d="M 747.398 1303.59 C 757.91 1332.05 753.104 1338.48 786.011 1350.44 C 757.434 1361.74 756.676 1367.65 747.23 1395.75 C 744.825 1390.54 743.179 1382.27 740.193 1375.78 C 732.894 1359.93 723.321 1356.83 708.227 1350.98 C 739.176 1339.67 738.439 1332.16 747.398 1303.59 z"/>
<path transform="translate(0,0)" fill="rgb(249,185,92)" d="M 746.623 1330.6 C 749.332 1332.63 762.716 1348.46 766.078 1352.32 C 761.614 1361.55 755.288 1365.99 747.655 1372.79 C 740.343 1361.79 737.715 1359.45 727.286 1351.06 C 733.784 1344.33 740.204 1337.41 746.623 1330.6 z"/>
<path transform="translate(0,0)" fill="rgb(249,185,92)" d="M 600.503 1164.18 C 604.065 1172.71 607.276 1180.76 611.689 1188.91 C 622.63 1200.37 626.697 1202.29 641.459 1208.1 C 624.081 1214.85 615.698 1217.79 607.687 1236.07 C 605.965 1240.04 604.289 1244.04 602.66 1248.05 L 601.384 1248.28 L 600.283 1246.8 C 590.684 1220.81 589.135 1218.34 563.026 1207.44 C 589.283 1197.96 594.058 1190.56 600.503 1164.18 z"/>
<path transform="translate(0,0)" fill="rgb(243,173,64)" d="M 611.689 1188.91 C 622.63 1200.37 626.697 1202.29 641.459 1208.1 C 624.081 1214.85 615.698 1217.79 607.687 1236.07 C 605.965 1240.04 604.289 1244.04 602.66 1248.05 L 601.384 1248.28 L 600.283 1246.8 C 603.882 1240.97 602.647 1239.06 604.248 1232.27 C 607.503 1218.48 611.801 1215.8 622.647 1208.67 C 615.004 1203.08 607.942 1199.15 611.689 1188.91 z"/>
<path transform="translate(0,0)" fill="rgb(243,173,64)" d="M 746.374 590.559 C 749.354 593.042 753.784 608.958 756.317 613.67 C 762.896 625.909 773.331 629.916 785.342 634.157 C 759.247 647.257 757.626 649.459 748.115 677.154 C 746.391 674.089 743.4 665.501 741.83 661.838 C 734.242 644.129 724.486 641.304 708.286 634.875 C 734.521 625.059 740.2 617.796 746.374 590.559 z"/>
<path transform="translate(0,0)" fill="rgb(249,185,92)" d="M 745.711 613.612 C 750.067 616.614 761.017 629.492 765.545 634.283 C 759.764 641.55 753.597 648.185 747.339 655.024 C 739.44 646.184 735.43 642.123 726.153 634.746 C 737.199 626.722 738.522 625.277 745.711 613.612 z"/>
<path transform="translate(0,0)" fill="rgb(243,173,64)" d="M 1260.23 591.653 C 1263.67 596.214 1268.11 609.893 1271.13 615.921 C 1276.56 626.751 1288.17 630.508 1298.97 634.261 C 1272.5 646.617 1271.71 649.6 1260.76 675.355 C 1256.92 670.824 1252.58 659.103 1250.92 653.275 C 1248.34 644.277 1230.72 637.807 1222.55 634.229 C 1247.95 625.826 1252.43 615.03 1260.23 591.653 z"/>
<path transform="translate(0,0)" fill="rgb(249,185,92)" d="M 1259.2 613.612 C 1260.72 614.266 1277.78 633.317 1280.63 636.07 C 1273.6 641.369 1268.68 648.168 1262.72 654.812 C 1258.56 652.867 1245.35 638.86 1239.94 634.126 C 1246.03 628.832 1253.64 619.819 1259.2 613.612 z"/>
<path transform="translate(0,0)" fill="rgb(243,173,64)" d="M 566.722 796.354 C 592.859 783.052 594.339 779.175 601.805 751.304 C 609.3 780.341 611.467 784.758 639.228 797.102 C 622.48 805.805 612.938 807.32 606.38 828.164 C 604.877 833.003 603.422 837.856 602.014 842.724 C 599.244 833.585 597.131 825.821 593.07 817.125 L 592.542 815.976 C 592.432 815.749 592.321 815.521 592.211 815.293 C 585.808 807.034 568.344 801.791 565.481 797.347 L 566.722 796.354 z"/>
<path transform="translate(0,0)" fill="rgb(249,185,92)" d="M 566.722 796.354 C 587.392 795.779 590.501 792.998 601.819 775.916 C 607.964 783.789 613.077 790.634 620.227 797.693 C 614.874 802.68 603.803 815.972 600.198 818.601 C 597.332 817.314 595.147 816.398 592.211 815.293 C 585.808 807.034 568.344 801.791 565.481 797.347 L 566.722 796.354 z"/>
<path transform="translate(0,0)" fill="rgb(243,173,64)" d="M 1259.45 1307.6 C 1263.37 1311.28 1266.53 1325.57 1270.05 1330.76 C 1277.15 1341.2 1287.3 1345.58 1298.02 1350.9 C 1272.04 1360.71 1272.11 1366.38 1260.73 1390.6 L 1260.28 1390.66 C 1257.89 1389.53 1254.79 1379 1253.65 1375.57 C 1248.63 1360.48 1236.53 1356.11 1222.84 1349.99 C 1249 1340.67 1252.73 1334.16 1259.45 1307.6 z"/>
<path transform="translate(0,0)" fill="rgb(249,185,92)" d="M 1259.82 1332.64 C 1263.9 1333.97 1275.72 1347.81 1279 1351.64 C 1269.62 1358.64 1267.33 1362.79 1260.5 1372.25 C 1252.36 1362.98 1248.67 1359.83 1238.82 1352.08 C 1247.29 1345.01 1252.16 1340.4 1259.82 1332.64 z"/>
<path transform="translate(0,0)" fill="rgb(249,185,92)" d="M 1405.07 1165.58 C 1410.67 1172.24 1413.46 1186.11 1418.94 1192.98 C 1424.44 1199.88 1435.22 1204.16 1443.16 1207.75 C 1417.19 1220 1414.25 1222.86 1407.27 1251.24 C 1394.59 1242.42 1409.31 1220.17 1369.57 1208.76 L 1378.9 1203.64 C 1396.92 1193.56 1399.77 1184.27 1405.07 1165.58 z"/>
<path transform="translate(0,0)" fill="rgb(249,185,92)" d="M 141.377 1092.85 C 147.887 1095.05 149.218 1095.32 150.516 1102.36 C 153.668 1119.43 153.741 1136.78 156.315 1153.98 C 174.4 1272.1 215.907 1385.42 278.396 1487.28 C 388.138 1669.59 563.146 1803.3 767.89 1861.27 C 797.356 1869.79 827.309 1876.52 857.584 1881.44 C 869.352 1883.24 914.045 1885.46 919.42 1894.54 C 919.567 1898.58 918.934 1899.31 917.241 1903.16 C 904.56 1900.84 886.904 1899.22 873.665 1897.54 C 853.517 1895.02 833.481 1891.69 813.607 1887.54 C 690.546 1861.37 575.049 1807.55 475.857 1730.16 C 289.569 1584.41 168.709 1370.72 139.798 1135.97 C 138.468 1124.65 134.612 1101.42 141.377 1092.85 z"/>
<path transform="translate(0,0)" fill="rgb(249,185,92)" d="M 1859.39 1094.35 C 1864.76 1095.77 1870.19 1096.31 1870.53 1103 C 1871.56 1123.15 1867.23 1145.6 1864.09 1165.51 C 1842.37 1298.67 1791.41 1425.35 1714.86 1536.44 C 1598.17 1708.01 1422.58 1830.79 1221.38 1881.5 C 1195.35 1888.06 1168.99 1893.18 1142.4 1896.83 C 1129.56 1898.7 1116.22 1899.87 1103.56 1902.24 C 1099.34 1902.25 1098.4 1902.5 1094.62 1900.95 C 1092.21 1898.49 1092.25 1898.73 1091.6 1895.37 C 1095.26 1887 1109.58 1886.8 1117.63 1885.92 C 1240.72 1872.54 1371.97 1824.44 1474.2 1754.26 C 1654.08 1631.57 1782.62 1447.08 1835.42 1235.85 C 1842.33 1208.97 1847.81 1181.75 1851.84 1154.29 C 1854.67 1133.68 1855.51 1115.11 1859.39 1094.35 z"/>
<path transform="translate(0,0)" fill="rgb(249,185,92)" d="M 909.712 141.417 C 914.964 140.508 924.338 140.582 922.848 148.386 C 915.425 156.473 879.477 157.571 866.497 159.653 C 829.032 165.646 792.049 174.34 755.838 185.668 C 679.837 209.715 607.664 244.506 541.511 288.985 C 362.678 410.28 232.954 591.364 175.638 799.711 C 165.521 837.314 158.883 876.993 153.866 915.618 C 152.678 924.763 151.757 934.579 149.961 943.587 L 149.76 944.557 C 147.033 948.108 146.693 949.63 142.407 947.861 C 132.078 933.256 147.084 864.152 150.647 846.596 C 180.971 697.21 248.03 565 344.6 447.645 C 484.995 274.773 688.226 164.644 909.712 141.417 z"/>
<path transform="translate(0,0)" fill="rgb(249,185,92)" d="M 1090.56 140.009 C 1195.98 149.671 1282.59 174.323 1378.14 221.119 C 1589.85 327.194 1751.09 512.607 1826.75 736.992 C 1844.86 789.98 1858.12 844.503 1866.37 899.889 C 1869.08 917.082 1874.22 934.595 1866.35 950.634 C 1857.07 946.127 1855.84 939.937 1855.07 930.192 C 1847.07 829.091 1812.11 720.674 1767.11 630.424 C 1662.73 418.417 1476.74 257.879 1251.76 185.598 C 1220.79 175.295 1189.03 167.512 1156.8 162.323 C 1136.5 158.899 1110.86 156.448 1090.32 152.617 C 1088.07 152.196 1087.32 149.691 1086.73 147.944 C 1087.24 144.078 1088.3 143.15 1090.56 140.009 z"/>
<path transform="translate(0,0)" fill="rgb(243,173,64)" d="M 1739.95 1022.74 C 1743.76 1022.92 1746.22 1022.55 1749.14 1024.87 C 1755.6 1037.05 1746.93 1100.58 1744.83 1117.32 C 1724.64 1279.03 1653 1429.98 1540.47 1547.86 C 1406.95 1689.17 1223.14 1772.22 1028.84 1779.01 C 1022.49 1779.04 1019.24 1779.6 1017.22 1773.49 C 1020.38 1762.82 1052.89 1765.04 1063.42 1764.18 C 1088.75 1762.29 1113.95 1759.03 1138.92 1754.41 C 1239.19 1735.4 1334.23 1695.19 1417.7 1636.48 C 1574.07 1527.5 1682.93 1362.92 1722.02 1176.37 C 1728.78 1142.96 1734.56 1107.1 1735.85 1072.99 C 1736.51 1055.52 1736.84 1040.08 1739.95 1022.74 z"/>
<path transform="translate(0,0)" fill="rgb(243,173,64)" d="M 254.242 1023.87 C 257.981 1023.88 260.633 1023.43 263.772 1025.32 C 267.098 1030.41 266.579 1047.49 267.089 1054.47 C 268.457 1073.89 270.243 1093.27 272.445 1112.61 C 275.401 1138.13 279.717 1163.47 285.375 1188.53 C 356.367 1505.87 642.895 1755.21 970.545 1765.37 C 977.103 1765.57 986.721 1765.71 992.586 1768.55 C 994.792 1769.62 994.634 1775.99 994.639 1778.13 C 972.068 1782.35 920.229 1774.75 896.671 1771.24 C 735.378 1747.24 586.311 1671.3 472.077 1554.93 C 335.808 1415.38 251.951 1219.65 254.242 1023.87 z"/>
<path transform="translate(0,0)" fill="rgb(243,173,64)" d="M 970.196 256.565 C 977.96 255.541 988.979 252.988 993.593 260.248 C 993.809 264.777 994.489 262.935 992.153 266.175 C 984.758 269.877 982.066 268.272 974.619 268.393 C 950.828 268.777 924.917 271.903 901.352 275.008 C 750.887 295.416 610.856 363.295 501.629 468.773 C 356.133 606.367 271.567 796.338 266.695 996.532 C 266.263 1002.46 264.794 1009.98 257.069 1004.98 C 249.701 992.591 257.615 935.06 259.51 919.382 C 278.149 771.934 339.5 633.156 436.008 520.133 C 581.021 350.715 749.657 273.43 970.196 256.565 z"/>
<path transform="translate(0,0)" fill="rgb(243,173,64)" d="M 1014.85 255.916 L 1016.77 255.884 C 1045.39 255.457 1079.63 258.55 1107.82 262.272 C 1262.49 282.938 1406.3 353.185 1517.67 462.48 C 1665.29 605.348 1749.44 801.446 1751.29 1006.87 C 1746.74 1006.59 1745.78 1006.63 1741.5 1005.32 C 1738.29 1001.87 1738.55 990.984 1738.32 986.161 C 1735.52 914.821 1722.87 844.21 1700.73 776.336 C 1621.78 533.768 1423.61 348.866 1176.16 286.893 C 1126.03 274.732 1074.53 270.503 1023.25 268.664 C 1019.49 268.529 1017.76 267.936 1015.09 265.512 C 1013.87 262.055 1014.48 259.585 1014.85 255.916 z"/>
<path transform="translate(0,0)" fill="rgb(243,173,64)" d="M 1005.26 1812.35 C 1008.39 1814.72 1016.89 1836.37 1019.86 1842.1 C 1034.83 1871.01 1051.34 1882.13 1078.61 1898.84 C 1038.31 1927.91 1031.88 1934.12 1007.82 1978.14 C 999.842 1970.43 993.703 1958.82 987.63 1949.34 C 972.718 1926.07 955.848 1913.58 933.001 1899.6 C 973.634 1875.69 988.491 1855.96 1005.26 1812.35 z"/>
<path transform="translate(0,0)" fill="rgb(249,185,92)" d="M 1004.84 1849.54 C 1009.27 1852.06 1021.04 1872.47 1026.69 1878.61 C 1036.71 1889.5 1038.97 1891.42 1051.69 1899.56 C 1028.29 1916.13 1020.95 1925.96 1007.06 1950.77 C 1003.61 1949.6 990.851 1925.82 986.104 1920.57 C 977.508 1911.04 970.899 1906.82 960.506 1899.79 C 983.414 1884.72 990.825 1872.26 1004.84 1849.54 z"/>
<path transform="translate(0,0)" fill="rgb(243,173,64)" d="M 1004.45 57.5045 C 1008.67 60.8847 1013.68 75.9726 1017.58 82.8212 C 1033.98 111.587 1048.73 122.709 1075.32 140.296 C 1036.48 162.203 1019.7 183.461 1006.83 226.509 C 1002.08 222.557 994.429 197.575 988.519 188.772 C 972.683 165.182 958.856 156.2 936.337 140.774 C 974.46 113.845 985.212 101.148 1004.45 57.5045 z"/>
<path transform="translate(0,0)" fill="rgb(249,185,92)" d="M 1004.65 88.5819 C 1008.72 91.7019 1018.89 111.053 1023.3 116.372 C 1031.4 126.156 1039.68 131.913 1049.61 139.659 C 1025.52 155.395 1020.64 165.154 1005.58 189.526 C 1001.05 185.928 992.384 169.559 987.981 163.735 C 979.107 151.999 972.212 147.587 960.32 139.465 C 984.146 123.833 991.002 112.899 1004.65 88.5819 z"/>
<path transform="translate(0,0)" fill="rgb(243,173,64)" d="M 135.359 955.567 C 140.37 960.271 145.574 970.738 150.515 976.787 C 169.413 999.923 187.416 1008.81 213.661 1020.22 C 176.569 1037.5 160.789 1048.32 138.083 1083.36 L 137.165 1083.66 C 130.909 1081.96 123.071 1067.37 118.436 1062.02 C 102.18 1043.28 82.5633 1031.79 60.8977 1020.55 C 95.5993 1003.72 115.295 988.654 135.359 955.567 z"/>
<path transform="translate(0,0)" fill="rgb(249,185,92)" d="M 134.419 981.665 C 137.691 982.527 143.8 991.158 146.973 994.54 C 157.347 1005.6 166.969 1012.75 179.925 1020.48 C 158.787 1032.13 150.396 1040.46 136.194 1059.82 C 114.203 1037.84 122.222 1037.76 90.369 1020.46 C 112.434 1009.77 119.015 1000.36 134.419 981.665 z"/>
<path transform="translate(0,0)" fill="rgb(243,173,64)" d="M 1871.65 955.657 C 1876.17 959.566 1881.73 970.548 1886.31 976.023 C 1905.32 998.791 1923.15 1007.57 1948.62 1020.48 C 1925.93 1031.85 1906.56 1042.57 1890.03 1062.35 C 1884.71 1068.7 1878.68 1078.93 1873 1084.25 C 1846.18 1048.17 1834.92 1036.81 1793.3 1021.1 C 1830.76 1006.84 1851.62 989.911 1871.65 955.657 z"/>
<path transform="translate(0,0)" fill="rgb(249,185,92)" d="M 1871.36 981.559 C 1874.5 982.688 1884.95 995.281 1888.1 998.504 C 1897.96 1008.6 1904.86 1013.44 1916.94 1020.52 C 1895.7 1032.51 1888.66 1040.4 1873.65 1059.32 C 1871.14 1059.99 1864.2 1048.18 1861.59 1045.13 C 1851.84 1033.7 1842.12 1027.82 1829.23 1020.66 C 1849.58 1008.7 1857.65 1000.69 1871.36 981.559 z"/>
<path transform="translate(0,0)" fill="rgb(243,173,64)" d="M 1966.15 1011.13 C 1974.56 1011.1 1993.52 1009.62 1998.31 1017.4 C 1998.12 1020.95 1997.6 1021.08 1995.45 1023.9 C 1986.85 1024.16 1968.96 1026.14 1963.75 1018.57 C 1963.5 1014.29 1963.65 1015.53 1966.15 1011.13 z"/>
<path transform="translate(0,0)" fill="rgb(243,173,64)" d="M 1001.75 1997.94 C 1019.1 1998.35 1014.55 2019.02 1012.2 2030.86 C 996.522 2026.95 999.258 2010.64 1001.75 1997.94 z"/>
<path transform="translate(0,0)" fill="rgb(243,173,64)" d="M 22.6386 1013.44 C 28.4144 1012.77 46.3547 1013.5 42.9353 1022.93 C 39.793 1025.46 37.9109 1024.98 33.5923 1025.08 C 26.5223 1025.31 11.7974 1025.93 8.9263 1017.9 C 12.3974 1013.36 17.4314 1013.71 22.6386 1013.44 z"/>
<path transform="translate(0,0)" fill="rgb(243,173,64)" d="M 999.887 14.7054 C 1014.95 16.7893 1010.75 32.3267 1009.24 43.8085 C 995.067 43.0919 999.244 25.2701 999.887 14.7054 z"/>
</svg>