<svg version="1.1" xmlns="http://www.w3.org/2000/svg" style="display: block;" viewBox="0 0 1304 2045.3123" width="1304" height="2045.3123" preserveAspectRatio="xMidYMid meet">
<defs>
	<linearGradient id="Gradient1" gradientUnits="userSpaceOnUse" x1="425.842" y1="22.0948" x2="427.16" y2="-12.1332">
		<stop class="stop0" offset="0" stop-opacity="1" stop-color="rgb(94,94,40)"/>
		<stop class="stop1" offset="1" stop-opacity="1" stop-color="rgb(73,77,66)"/>
	</linearGradient>
	<linearGradient id="Gradient2" gradientUnits="userSpaceOnUse" x1="143.942" y1="1140.57" x2="187.774" y2="1414.44">
		<stop class="stop0" offset="0" stop-opacity="1" stop-color="rgb(102,102,102)"/>
		<stop class="stop1" offset="1" stop-opacity="1" stop-color="rgb(156,155,155)"/>
	</linearGradient>
	<linearGradient id="Gradient3" gradientUnits="userSpaceOnUse" x1="430.244" y1="1473.15" x2="138.854" y2="2011">
		<stop class="stop0" offset="0" stop-opacity="1" stop-color="rgb(172,171,171)"/>
		<stop class="stop1" offset="1" stop-opacity="1" stop-color="rgb(203,202,202)"/>
	</linearGradient>
	<linearGradient id="Gradient4" gradientUnits="userSpaceOnUse" x1="1127.51" y1="1165.52" x2="1131.07" y2="1450.47">
		<stop class="stop0" offset="0" stop-opacity="1" stop-color="rgb(111,111,110)"/>
		<stop class="stop1" offset="1" stop-opacity="1" stop-color="rgb(160,159,158)"/>
	</linearGradient>
	<linearGradient id="Gradient5" gradientUnits="userSpaceOnUse" x1="-81.4898" y1="1056.69" x2="341.243" y2="119.695">
		<stop class="stop0" offset="0" stop-opacity="1" stop-color="rgb(136,32,31)"/>
		<stop class="stop1" offset="1" stop-opacity="1" stop-color="rgb(193,70,67)"/>
	</linearGradient>
	<linearGradient id="Gradient6" gradientUnits="userSpaceOnUse" x1="945.614" y1="2098.09" x2="446.685" y2="-90.2461">
		<stop class="stop0" offset="0" stop-opacity="1" stop-color="rgb(251,206,102)"/>
		<stop class="stop1" offset="1" stop-opacity="1" stop-color="rgb(255,251,166)"/>
	</linearGradient>
	<linearGradient id="Gradient7" gradientUnits="userSpaceOnUse" x1="477.397" y1="1827.34" x2="824.389" y2="-33.1957">
		<stop class="stop0" offset="0" stop-opacity="1" stop-color="rgb(123,28,26)"/>
		<stop class="stop1" offset="1" stop-opacity="1" stop-color="rgb(189,67,65)"/>
	</linearGradient>
</defs>
<path transform="translate(0,0)" fill="url(#Gradient7)" d="M 0 0 L 1304 0 L 1304 329.549 L 1304 526.485 C 1302.01 544.652 1302.98 586.845 1302.9 606.338 L 1302.23 826.762 C 1302.17 854.692 1305.27 959.666 1297.51 986.158 C 1292.74 1002.45 1215.5 1075.24 1208.57 1101.8 C 1198.65 1160.53 1203.25 1237.25 1204.28 1297.41 C 1204.85 1348.14 1205.14 1398.86 1205.15 1449.59 L 1201.9 2043.49 C 1177.9 2044.4 1157.72 2043.32 1133.92 2041.94 C 1036.9 2036.31 940.4 2017.46 853.342 1972.7 C 827.636 1959.48 812.16 1952.19 790.697 1932.99 C 777.292 1924.05 726.601 1866.9 719.335 1852.8 C 673.301 1779.98 671.733 1700.94 674.951 1617.38 L 647.686 1590.22 C 641.735 1598.13 634.953 1604.52 627.894 1611.38 C 629.198 1701.06 635.538 1755.79 589.385 1838.71 C 574.721 1865.38 556.395 1889.87 534.941 1911.46 C 443.139 2004.28 295.597 2033.71 169.076 2044.07 C 147.895 2045.8 123.41 2045.01 101.951 2045.12 C 100.448 2026.6 101.496 2007.49 100.612 1988.91 C 96.6777 1906.21 103.997 1821.6 100.929 1739.12 C 99.7804 1733.41 99.1207 1711.34 98.8522 1704.6 C 97.756 1669.76 97.3754 1634.91 97.7107 1600.05 L 98.0035 1284.52 L 98.0609 1180.99 C 98.0116 1158.66 98.0363 1135.8 96.6373 1113.51 C 96.1033 1105 95.2637 1100.81 91.0925 1093.5 C 72.8844 1074.12 9.54783 997.49 2.89223 974.221 C -1.97337 957.21 1.23064 927.386 1.28709 909.082 L 2.22697 769.721 L 2.29883 285.138 L 2.10782 110.524 C 2.09323 80.2213 1.95034 49.6975 1.98964 19.3811 C 1.99547 14.8822 2.11427 14.3126 0 10.9804 L 0 7.98262 L 0 2.39253 L 0 0 z"/>
<path transform="translate(0,0)" fill="url(#Gradient6)" d="M 1155.77 2.255 C 1203.86 2.23124 1253.92 2.93624 1301.86 2.15392 C 1302.34 18.9469 1302.61 33.441 1301.77 50.2852 L 1302.85 258.919 C 1302.93 269.54 1302.44 322.907 1304 329.549 L 1304 526.485 C 1302.01 544.652 1302.98 586.845 1302.9 606.338 L 1302.23 826.762 C 1302.17 854.692 1305.27 959.666 1297.51 986.158 C 1292.74 1002.45 1215.5 1075.24 1208.57 1101.8 C 1198.65 1160.53 1203.25 1237.25 1204.28 1297.41 C 1204.85 1348.14 1205.14 1398.86 1205.15 1449.59 L 1201.9 2043.49 C 1177.9 2044.4 1157.72 2043.32 1133.92 2041.94 C 1036.9 2036.31 940.4 2017.46 853.342 1972.7 C 827.636 1959.48 812.16 1952.19 790.697 1932.99 C 777.292 1924.05 726.601 1866.9 719.335 1852.8 C 673.301 1779.98 671.733 1700.94 674.951 1617.38 L 647.686 1590.22 C 641.735 1598.13 634.953 1604.52 627.894 1611.38 C 629.198 1701.06 635.538 1755.79 589.385 1838.71 C 574.721 1865.38 556.395 1889.87 534.941 1911.46 C 443.139 2004.28 295.597 2033.71 169.076 2044.07 C 147.895 2045.8 123.41 2045.01 101.951 2045.12 C 100.448 2026.6 101.496 2007.49 100.612 1988.91 C 96.6777 1906.21 103.997 1821.6 100.929 1739.12 C 99.7804 1733.41 99.1207 1711.34 98.8522 1704.6 C 97.756 1669.76 97.3754 1634.91 97.7107 1600.05 L 98.0035 1284.52 L 98.0609 1180.99 C 98.0116 1158.66 98.0363 1135.8 96.6373 1113.51 C 96.1033 1105 95.2637 1100.81 91.0925 1093.5 C 72.8844 1074.12 9.54783 997.49 2.89223 974.221 C -1.97337 957.21 1.23064 927.386 1.28709 909.082 L 2.22697 769.721 L 2.29883 285.138 L 2.10782 110.524 C 2.09323 80.2213 1.95034 49.6975 1.98964 19.3811 C 1.99547 14.8822 2.11427 14.3126 0 10.9804 L 0 7.98262 C 11.0904 8.03716 22.181 8.01961 33.2712 7.92995 L 96.0734 7.99287 C 111.578 8.03187 127.082 7.8929 142.583 7.576 C 149.902 6.87495 158.539 6.91123 165.98 6.75454 C 183.257 7.40646 196.634 7.29441 213.945 6.89585 C 221.174 6.90013 230.242 6.56094 237.223 7.81571 L 241.873 8.05479 L 243.899 1787.6 C 278.442 1782.33 308.621 1777.11 342.231 1766.49 C 458.664 1729.73 554.483 1648.38 635.872 1559.96 C 639.854 1555.63 643.993 1551.2 647.72 1546.69 C 758.735 1666.66 891.707 1773.49 1061.63 1786.88 L 1058.17 7.77836 L 1062.76 7.27924 C 1074.87 -0.160296 1089.16 1.95082 1103.11 1.99542 L 1155.77 2.255 z"/>
<path transform="translate(0,0)" fill="rgb(168,52,51)" d="M 1155.77 2.255 C 1203.86 2.23124 1253.92 2.93624 1301.86 2.15392 C 1302.34 18.9469 1302.61 33.441 1301.77 50.2852 C 1300.17 35.312 1300.14 20.2187 1300.78 5.1964 C 1290.48 5.5638 1280.2 6.19382 1269.94 7.08584 L 1269.98 974.534 C 1254.08 996.791 1232.57 1019.84 1215.41 1041.64 C 1173.13 1095.31 1131.37 1147.89 1084.8 1197.99 C 1086.54 1157.23 1087.57 1121.9 1086.95 1080.96 C 1086.12 1026.02 1083.22 966.829 1087.02 912.201 C 1093.47 901.677 1105.53 886.455 1112.93 875.848 C 1128.06 854.171 1143.78 832.447 1159.64 811.317 C 1161.21 641.536 1161.63 471.747 1160.89 301.96 L 1159.71 122.804 C 1159.53 92.0051 1158.4 47.6435 1160.53 17.1864 C 1162.53 9.35644 1161.16 7.69523 1155.77 2.255 z"/>
<path transform="translate(0,0)" fill="url(#Gradient5)" d="M 96.0734 7.99287 C 111.578 8.03187 127.082 7.8929 142.583 7.576 C 142.604 34.1384 143.526 66.6512 142.599 92.7239 C 143.395 151.951 142.689 212.894 142.714 272.238 L 142.784 551.061 C 142.482 627.021 136.566 734.334 148.229 810.994 C 151.074 829.696 201.533 891.167 216.081 913.001 L 217.291 1194.81 C 184.851 1163.94 152.557 1118.29 124.218 1083.2 C 94.3467 1046.21 61.3037 1008.52 33.2183 970.532 L 33.2712 7.92995 L 96.0734 7.99287 z"/>
<path transform="translate(0,0)" fill="rgb(168,52,51)" d="M 96.0734 7.99287 C 111.578 8.03187 127.082 7.8929 142.583 7.576 C 142.604 34.1384 143.526 66.6512 142.599 92.7239 C 141.121 90.2209 140.072 39.1443 138.575 29.6154 C 131.587 24.1623 101.536 13.7478 91.6254 11.3116 C 90.8564 11.1225 84.6627 10.7995 82.6799 10.522 C 84.6882 8.8636 97.0422 10.5758 102.678 9.48288 L 96.0734 7.99287 z"/>
<path transform="translate(0,0)" fill="rgb(186,185,185)" d="M 1125.72 1416.06 C 1142.4 1415.5 1149.55 1415.1 1165.08 1408.9 C 1163.31 1414.41 1160.31 1422.95 1159.13 1428.37 C 1160.96 1434.48 1162.83 1440.58 1164.75 1446.66 C 1166.99 1448.58 1167.8 1449.44 1170.41 1450.72 L 1172.05 1450.2 L 1172.14 1463.42 C 1172.11 1479.13 1172.28 1495.24 1171.74 1510.91 C 1170.64 1543.26 1171.13 1576.18 1171.13 1608.6 L 1171.09 1763.5 C 1170.99 1847.71 1168.29 1927.22 1171.87 2011.82 C 1152.78 2010.66 1133.84 2011.35 1114.89 2010.02 L 1101.55 2009.07 C 1089.7 2006.85 1071.35 2005.67 1058.49 2003.98 C 1005.03 1996.96 970.993 1990.51 921.462 1969.35 C 914.776 1967.21 909.58 1965.62 903.151 1962.65 L 868.034 1945.51 C 862.506 1943.41 847.141 1934.06 841.544 1930.69 C 791.581 1900.61 767.484 1861.75 733.632 1817.77 C 731.369 1811.27 727.659 1803.56 724.799 1797.17 C 722.541 1791.36 720.395 1785.51 718.361 1779.61 C 715.483 1764.16 710.212 1749.54 708.518 1733.72 C 705.341 1704.04 707.091 1672.59 704.139 1643.15 C 731.667 1665.25 774.984 1704.67 805.909 1720.47 C 824.285 1739.11 902.558 1781.3 928.23 1786.69 C 978.402 1812.23 1034.77 1815.41 1089.8 1815.55 C 1088.49 1733.58 1087.97 1651.6 1088.25 1569.62 L 1087.91 1479.28 C 1087.82 1460.26 1087.26 1440.99 1088.25 1422.03 C 1090.58 1429.35 1094.3 1433.94 1100.45 1438.42 C 1113.6 1431.24 1115.35 1425.57 1125.72 1416.06 z"/>
<path transform="translate(0,0)" fill="rgb(252,252,252)" d="M 883.814 1933.16 C 888.733 1935.75 896.253 1940.47 901.615 1939.42 C 908.395 1934.75 919.173 1925.94 926.673 1925.5 C 939.648 1931.98 917.028 1946.72 911.979 1950.07 C 918.37 1957.29 920.825 1959.6 921.462 1969.35 C 914.776 1967.21 909.58 1965.62 903.151 1962.65 L 868.034 1945.51 C 873.181 1940.64 877.642 1936.74 883.814 1933.16 z"/>
<path transform="translate(0,0)" fill="rgb(144,143,143)" d="M 1166.47 1466.92 C 1167.06 1466.34 1171.16 1464.01 1172.14 1463.42 C 1172.11 1479.13 1172.28 1495.24 1171.74 1510.91 C 1168 1504.34 1164.28 1494.26 1161.38 1487.01 C 1165.44 1480.49 1170.43 1474.53 1166.47 1466.92 z"/>
<path transform="translate(0,0)" fill="rgb(252,252,252)" d="M 718.361 1779.61 C 724.048 1776.92 730.42 1772.92 735.872 1778.01 C 739.785 1786.45 730.934 1793.16 724.799 1797.17 C 722.541 1791.36 720.395 1785.51 718.361 1779.61 z"/>
<path transform="translate(0,0)" fill="rgb(144,166,173)" d="M 1101.55 2009.07 C 1102.81 2000.49 1104.05 1993.56 1107.67 1985.56 L 1109.27 1984.39 C 1112.79 1988.27 1111.38 2000.45 1114.89 2010.02 L 1101.55 2009.07 z"/>
<path transform="translate(0,0)" fill="rgb(144,166,173)" d="M 1164.75 1446.66 C 1166.99 1448.58 1167.8 1449.44 1170.41 1450.72 L 1172.05 1450.2 L 1172.14 1463.42 C 1171.16 1464.01 1167.06 1466.34 1166.47 1466.92 C 1162.71 1467.16 1154.55 1463.66 1152.45 1460.43 C 1155.91 1458.93 1159.05 1460.5 1162.72 1461.78 L 1164.33 1460.59 C 1165.62 1456.34 1165 1451.19 1164.75 1446.66 z"/>
<path transform="translate(0,0)" fill="rgb(252,252,252)" d="M 1137.65 1616.29 C 1172.64 1623.04 1162.63 1654.25 1136.37 1666.65 C 1124.36 1644.24 1144.99 1650.33 1151.1 1643.35 L 1150.69 1640.24 C 1144.24 1631.82 1126.46 1640.34 1137.65 1616.29 z"/>
<path transform="translate(0,0)" fill="rgb(252,252,252)" d="M 1025.31 1874.88 C 1030.99 1874.76 1037.5 1876.2 1040.37 1881.51 L 1039.51 1884.11 C 1032.35 1891.58 1016.73 1895.61 1006.8 1898.35 C 1001.48 1899.25 994.563 1900.59 990.932 1896.07 C 990.224 1892.5 989.932 1891.71 990.824 1888.23 C 991.342 1887.82 1020.21 1877.31 1025.31 1874.88 z"/>
<path transform="translate(0,0)" fill="rgb(144,143,143)" d="M 1131.64 1432.07 C 1133.33 1431.95 1135.02 1431.86 1136.71 1431.79 C 1141.4 1431.61 1143.73 1431.52 1147.32 1434.84 C 1148.79 1438.09 1148.71 1436.7 1147.67 1440.05 C 1141.37 1447.35 1127.18 1450.18 1118.08 1452.19 C 1113.31 1453.24 1105.33 1455.93 1102.78 1450.75 C 1105.29 1441.57 1123.33 1435.01 1131.64 1432.07 z"/>
<path transform="translate(0,0)" fill="rgb(252,252,252)" d="M 977.194 1870.79 C 980.971 1871.82 986.229 1875.08 988.324 1878.5 C 989.952 1888.92 977.229 1890.96 969.656 1892.82 C 964.833 1893.33 963.43 1893.53 959.762 1891.3 C 957.583 1883.05 971.365 1874.43 977.194 1870.79 z"/>
<path transform="translate(0,0)" fill="rgb(144,143,143)" d="M 738.887 1694.44 C 751.407 1699.5 758.055 1713.13 764.026 1724.42 C 743.682 1722.42 740.391 1712.04 738.887 1694.44 z"/>
<path transform="translate(0,0)" fill="rgb(144,166,173)" d="M 966.421 1819.1 C 973.283 1818.8 983.539 1817.1 986.468 1824.36 C 986.173 1827.85 984.565 1829.24 982.361 1832.04 C 969.848 1840.54 962.506 1832.85 966.421 1819.1 z"/>
<path transform="translate(0,0)" fill="rgb(252,252,252)" d="M 1090.29 1851.5 C 1094.94 1849.8 1100.11 1852.09 1101.96 1856.68 C 1103.82 1861.28 1101.7 1866.52 1097.17 1868.52 C 1094.1 1869.88 1090.54 1869.46 1087.87 1867.43 C 1085.21 1865.39 1083.86 1862.06 1084.37 1858.75 C 1084.87 1855.43 1087.14 1852.66 1090.29 1851.5 z"/>
<path transform="translate(0,0)" fill="rgb(144,166,173)" d="M 961.677 1916.05 C 965.967 1915.7 968.284 1915.5 971.539 1918.36 L 971.399 1920.68 C 967.233 1926.77 963.777 1927.98 957.195 1930.94 C 952.533 1931.19 949.617 1932.08 946.966 1927.78 C 947.717 1921.07 956.232 1917.97 961.677 1916.05 z"/>
<path transform="translate(0,0)" fill="rgb(252,252,252)" d="M 1051.95 1846.56 C 1057.15 1848.99 1062.05 1866.96 1057.06 1871.45 L 1054.95 1870.34 C 1050.86 1866.66 1046.82 1862.93 1042.82 1859.15 C 1045.39 1855.18 1049.09 1850.45 1051.95 1846.56 z"/>
<path transform="translate(0,0)" fill="rgb(144,166,173)" d="M 1125.93 1843.75 C 1137.79 1847.64 1119.79 1862.59 1115.67 1866.43 C 1114.53 1865.88 1113.15 1864.76 1112.08 1863.99 C 1108.45 1855.63 1120 1848.19 1125.93 1843.75 z"/>
<path transform="translate(0,0)" fill="rgb(252,252,252)" d="M 1148.14 1932.5 C 1150.83 1931.16 1154.04 1931.38 1156.52 1933.08 C 1159 1934.79 1160.36 1937.7 1160.07 1940.69 C 1159.79 1943.68 1157.9 1946.29 1155.15 1947.49 C 1151.03 1949.28 1146.24 1947.47 1144.34 1943.41 C 1142.45 1939.35 1144.13 1934.51 1148.14 1932.5 z"/>
<path transform="translate(0,0)" fill="rgb(144,166,173)" d="M 1085.47 1945.12 C 1100.5 1947.32 1104.65 1949.47 1112.71 1962.39 C 1098.76 1961.25 1090.84 1958.36 1085.47 1945.12 z"/>
<path transform="translate(0,0)" fill="rgb(186,185,185)" d="M 165.98 6.75454 C 183.257 7.40646 196.634 7.29441 213.945 6.89585 L 213.875 265.442 L 213.99 351.988 C 214.009 361.557 214.714 384.93 213.859 393.513 C 215.035 401.557 214.72 405.464 214.016 413.526 C 217.197 433.497 212.587 463.306 214.089 484.023 C 214.334 487.394 214.232 496.903 213.842 499.935 C 214.339 527.021 214.633 554.11 214.724 581.2 C 204.955 579.54 195.013 578.051 185.215 576.492 C 179.489 575.963 173.627 575.255 167.896 574.634 C 166.06 547.5 167.703 517.58 168.027 490.02 L 167.944 476.327 L 167.935 174.674 C 167.844 123.265 169.593 57.0305 165.98 6.75454 z"/>
<path transform="translate(0,0)" fill="rgb(144,166,173)" d="M 176.131 540.196 C 187.048 540.077 208.374 539.778 209.607 525.968 C 210.14 519.997 210.823 504.262 213.842 499.935 C 214.339 527.021 214.633 554.11 214.724 581.2 C 204.955 579.54 195.013 578.051 185.215 576.492 C 186.613 576.429 188.234 575.582 189.303 574.74 C 199.617 566.617 181.43 546.724 176.131 540.196 z"/>
<path transform="translate(0,0)" fill="rgb(252,252,252)" d="M 209.426 437.368 C 207.122 434.809 204.892 432.184 202.737 429.498 C 186.809 409.793 184.314 394.322 205.808 377.349 C 209.649 383.539 211.073 386.917 213.859 393.513 C 215.035 401.557 214.72 405.464 214.016 413.526 C 212.374 420.052 210.761 430.432 209.426 437.368 z"/>
<path transform="translate(0,0)" fill="rgb(144,166,173)" d="M 167.944 476.327 C 179.169 474.884 191.742 473.302 203.069 472.799 C 192.981 481.212 182.309 490.499 168.027 490.02 L 167.944 476.327 z"/>
<path transform="translate(0,0)" fill="rgb(252,252,252)" d="M 187.822 299.705 C 192.251 301.193 194.534 301.278 194.732 306.389 C 192.11 312.004 185.013 315.505 179.683 318.655 C 175.804 319.099 176.871 319.5 173.648 318.135 L 173.346 316.127 C 175.776 309.919 182.781 304.103 187.822 299.705 z"/>
<path transform="translate(0,0)" fill="url(#Gradient4)" d="M 1157.13 1172.15 C 1160.51 1170.37 1167.92 1164.67 1171.32 1162.19 C 1170.67 1191.51 1171.23 1221.84 1171.29 1251.28 L 1171.38 1369.55 C 1171.58 1395.64 1172.72 1424.27 1172.05 1450.2 L 1170.41 1450.72 C 1167.8 1449.44 1166.99 1448.58 1164.75 1446.66 C 1162.83 1440.58 1160.96 1434.48 1159.13 1428.37 C 1160.31 1422.95 1163.31 1414.41 1165.08 1408.9 C 1149.55 1415.1 1142.4 1415.5 1125.72 1416.06 C 1115.35 1425.57 1113.6 1431.24 1100.45 1438.42 C 1094.3 1433.94 1090.58 1429.35 1088.25 1422.03 C 1087.26 1361.63 1086.88 1301.21 1087.11 1240.8 C 1107.1 1215.77 1127.35 1190.96 1147.86 1166.36 L 1150.82 1162.72 C 1153.1 1167.41 1153.7 1168.19 1157.13 1172.15 z"/>
<path transform="translate(0,0)" fill="rgb(144,143,143)" d="M 1150.82 1162.72 C 1153.1 1167.41 1153.7 1168.19 1157.13 1172.15 L 1156 1172.41 C 1152.26 1171.54 1150.61 1169.19 1147.86 1166.36 L 1150.82 1162.72 z"/>
<path transform="translate(0,0)" fill="rgb(144,166,173)" d="M 1107.17 324.454 L 1108.73 322.407 C 1115.75 318.856 1124.63 320.323 1131.88 322.549 L 1132.91 602.736 C 1133.1 629.968 1137.68 687.829 1134.06 710.394 C 1122.29 718.181 1111.56 726.685 1099.2 733.574 C 1096.39 735.142 1086.76 739.745 1085.5 741.825 C 1084.33 728.922 1084.91 708.383 1084.8 695.086 C 1084.53 661.54 1085.64 627.818 1086.14 594.272 C 1086.93 525.707 1086.9 457.135 1086.04 388.57 C 1084.98 379.498 1085.3 365.361 1086.38 356.083 C 1102.62 353.046 1100.45 335.784 1107.17 324.454 z"/>
<path transform="translate(0,0)" fill="rgb(252,252,252)" d="M 1107.17 324.454 C 1124.36 330.083 1124.91 335.964 1122.11 352.212 C 1120 364.437 1091.32 373.971 1093.6 379.398 C 1099.59 381.406 1106.24 379.878 1109.63 382.229 C 1106.95 389.268 1092.32 388.538 1086.04 388.57 C 1084.98 379.498 1085.3 365.361 1086.38 356.083 C 1102.62 353.046 1100.45 335.784 1107.17 324.454 z"/>
<path transform="translate(0,0)" fill="rgb(186,185,185)" d="M 1062.76 7.27924 C 1074.87 -0.160296 1089.16 1.95082 1103.11 1.99542 L 1155.77 2.255 C 1161.16 7.69523 1162.53 9.35644 1160.53 17.1864 C 1157.7 14.556 1156.36 12.886 1152.53 12.0218 C 1150.28 12.6387 1148.86 12.8498 1147.61 15.0879 C 1137.73 32.7771 1140.96 225.169 1141.1 262.278 C 1136.39 260.02 1135.51 254.621 1133.93 249.901 C 1132 271.341 1133.37 298.745 1131.88 322.549 C 1124.63 320.323 1115.75 318.856 1108.73 322.407 L 1107.17 324.454 C 1100.45 335.784 1102.62 353.046 1086.38 356.083 C 1087.38 345.368 1087.05 328.471 1087.07 317.38 L 1087.05 250.961 C 1086.97 186.652 1087.48 126.586 1085.97 62.1688 C 1084.67 52.5214 1084.22 41.0061 1083.88 31.2887 C 1082.15 20.3816 1083.5 17.7459 1086.35 7.14646 C 1079.44 7.99163 1069.6 8.45629 1062.76 7.27924 z"/>
<path transform="translate(0,0)" fill="rgb(216,192,108)" d="M 1062.76 7.27924 C 1074.87 -0.160296 1089.16 1.95082 1103.11 1.99542 L 1155.77 2.255 C 1161.16 7.69523 1162.53 9.35644 1160.53 17.1864 C 1157.7 14.556 1156.36 12.886 1152.53 12.0218 C 1150.28 12.6387 1148.86 12.8498 1147.61 15.0879 C 1137.73 32.7771 1140.96 225.169 1141.1 262.278 C 1136.39 260.02 1135.51 254.621 1133.93 249.901 C 1134.23 227.491 1133.06 202.461 1132.98 179.573 L 1133.23 6.6077 C 1118.66 6.8461 1100.28 5.58181 1086.35 7.14646 C 1079.44 7.99163 1069.6 8.45629 1062.76 7.27924 z"/>
<path transform="translate(0,0)" fill="rgb(144,166,173)" d="M 1083.88 31.2887 L 1084.01 18.0858 C 1112.37 31.8812 1108.35 42.8995 1085.97 62.1688 C 1084.67 52.5214 1084.22 41.0061 1083.88 31.2887 z"/>
<path transform="translate(0,0)" fill="rgb(252,252,252)" d="M 1114.59 214.82 C 1120.52 215.417 1123.73 216.042 1124.96 221.971 C 1123.28 228.387 1119.68 230.371 1114.43 234.021 C 1109.32 234.632 1106.02 235.199 1104.23 230.093 C 1105.43 223.696 1110.18 219.443 1114.59 214.82 z"/>
<path transform="translate(0,0)" fill="rgb(144,143,143)" d="M 167.896 574.634 C 173.627 575.255 179.489 575.963 185.215 576.492 C 195.013 578.051 204.955 579.54 214.724 581.2 C 213.993 635.117 213.729 689.039 213.934 742.961 C 213.976 772.463 214.012 825.164 217.256 853.799 C 217.002 857.682 217.588 861.6 213.679 863.188 C 200.528 857.98 174.236 811.367 171.152 796.962 C 162.391 756.042 166.034 710.356 166.946 668.488 C 167.77 637.211 168.087 605.922 167.896 574.634 z"/>
<path transform="translate(0,0)" fill="rgb(234,219,137)" d="M 213.945 6.89585 C 221.174 6.90013 230.242 6.56094 237.223 7.81571 C 232.627 8.12929 231.728 7.2973 229.314 9.94334 C 219.99 59.6919 230.508 127.337 228.94 178.431 C 228.347 197.761 220.849 213.972 220.69 230.391 C 220.504 249.755 226.497 270.133 226.04 291.162 C 225.297 329.614 219.076 367.596 218.021 406.039 C 217.37 429.747 222.955 452.592 222.942 476.06 C 222.883 585.607 222.743 695.095 224.19 804.634 C 224.323 814.664 223.034 825.3 221.149 835.126 C 219.874 841.632 217.458 847.395 217.256 853.799 C 214.012 825.164 213.976 772.463 213.934 742.961 C 213.729 689.039 213.993 635.117 214.724 581.2 C 214.633 554.11 214.339 527.021 213.842 499.935 C 214.232 496.903 214.334 487.394 214.089 484.023 C 212.587 463.306 217.197 433.497 214.016 413.526 C 214.72 405.464 215.035 401.557 213.859 393.513 C 214.714 384.93 214.009 361.557 213.99 351.988 L 213.875 265.442 L 213.945 6.89585 z"/>
<path transform="translate(0,0)" fill="rgb(144,143,143)" d="M 1085.5 741.825 C 1086.76 739.745 1096.39 735.142 1099.2 733.574 C 1111.56 726.685 1122.29 718.181 1134.06 710.394 C 1133.24 730.643 1131.02 787.378 1133.82 806.233 C 1121.13 825.841 1100.21 851.978 1085.68 871.05 C 1086.7 827.981 1086.64 784.892 1085.5 741.825 z"/>
<path transform="translate(0,0)" fill="rgb(234,219,137)" d="M 1133.93 249.901 C 1135.51 254.621 1136.39 260.02 1141.1 262.278 C 1145.79 274.209 1141.97 384.485 1141.64 403.14 C 1140.59 488.175 1140.53 573.219 1141.44 658.255 C 1141.72 694.646 1143.81 730.146 1142.97 766.592 C 1142.49 787.57 1136 792.369 1133.82 806.233 C 1131.02 787.378 1133.24 730.643 1134.06 710.394 C 1137.68 687.829 1133.1 629.968 1132.91 602.736 L 1131.88 322.549 C 1133.37 298.745 1132 271.341 1133.93 249.901 z"/>
<path transform="translate(0,0)" fill="rgb(144,143,143)" d="M 91.0925 1093.5 C 105.405 1100.33 103.49 1108.98 103.607 1123.31 C 104.687 1256.11 103.232 1388.94 103.593 1521.75 C 103.77 1571.67 103.602 1621.58 103.089 1671.5 C 102.993 1683.32 103.2 1729.78 100.929 1739.12 C 99.7804 1733.41 99.1207 1711.34 98.8522 1704.6 C 97.756 1669.76 97.3754 1634.91 97.7107 1600.05 L 98.0035 1284.52 L 98.0609 1180.99 C 98.0116 1158.66 98.0363 1135.8 96.6373 1113.51 C 96.1033 1105 95.2637 1100.81 91.0925 1093.5 z"/>
<path transform="translate(0,0)" fill="rgb(216,192,108)" d="M 733.632 1817.77 C 767.484 1861.75 791.581 1900.61 841.544 1930.69 C 847.141 1934.06 862.506 1943.41 868.034 1945.51 L 903.151 1962.65 C 900.737 1964.92 898.423 1966.48 895.006 1966.02 C 847.16 1959.62 793.015 1905.14 762.531 1873.87 L 752.663 1879.15 C 748.603 1875.39 745.597 1872.84 741.21 1869.47 C 739.807 1862.95 740.004 1861.07 740.27 1854.25 C 739.619 1843.81 734.057 1835.46 733.632 1817.77 z"/>
<path transform="translate(0,0)" fill="rgb(234,219,137)" d="M 740.27 1854.25 C 749.131 1860.74 754.909 1865.77 762.531 1873.87 L 752.663 1879.15 C 748.603 1875.39 745.597 1872.84 741.21 1869.47 C 739.807 1862.95 740.004 1861.07 740.27 1854.25 z"/>
<path transform="translate(0,0)" fill="rgb(216,192,108)" d="M 805.909 1720.47 C 831.558 1726.49 910.152 1767.19 928.23 1786.69 C 902.558 1781.3 824.285 1739.11 805.909 1720.47 z"/>
<path transform="translate(0,0)" fill="rgb(216,192,108)" d="M 719.335 1852.8 C 730.026 1855.14 728.671 1864.61 741.21 1869.47 C 745.597 1872.84 748.603 1875.39 752.663 1879.15 C 764.673 1891.44 785.752 1916.49 790.697 1932.99 C 777.292 1924.05 726.601 1866.9 719.335 1852.8 z"/>
<path transform="translate(0,0)" fill="rgb(106,105,105)" d="M 1150.82 1162.72 C 1158.39 1154.52 1165.9 1146.27 1173.34 1137.96 C 1173.06 1142.49 1172.31 1158.33 1171.32 1162.19 C 1167.92 1164.67 1160.51 1170.37 1157.13 1172.15 C 1153.7 1168.19 1153.1 1167.41 1150.82 1162.72 z"/>
<path transform="translate(0,0)" fill="url(#Gradient3)" d="M 130.456 1504.24 C 125.16 1484.06 123.43 1459.41 122.419 1438.18 C 119.181 1375.85 123.31 1313.58 123.859 1251.25 C 123.749 1220.89 121.95 1190.46 121.822 1160.1 C 121.787 1151.78 121.613 1136.55 129.993 1132.71 C 132.977 1133.75 132.033 1133.43 134.083 1136.99 C 157.946 1167.66 198.079 1210.81 218.017 1242.42 L 217.904 1251.74 C 218.19 1257.04 218.208 1259.35 217.716 1264.62 C 228.447 1282.51 225.186 1290.02 226.667 1309.02 C 226.996 1319.99 227.708 1344.09 225.784 1354.41 C 226.794 1365.41 225.151 1390.34 217.74 1399.03 C 215.546 1413.02 215.049 1432.81 214.626 1447.21 C 213.938 1478.05 213.711 1508.9 213.945 1539.74 L 214.004 1568.25 C 215.108 1584.59 215.125 1600.39 215.04 1616.74 L 215.029 1623.93 C 215.622 1687.86 214.31 1751.62 215.155 1815.6 C 236.274 1815.75 259.483 1816.42 280.375 1813.54 C 374.819 1800.52 459.734 1749.05 533.843 1691.46 C 552.146 1677.23 571.722 1657.98 592.091 1646.39 C 594.545 1644.99 595.6 1646.27 597.222 1647.71 C 608.113 1672.1 589.047 1767.27 579.119 1791.71 C 518.826 1940.15 350.224 1998.56 202.078 2008.45 C 180.819 2009.87 157.214 2011.02 136.071 2013.31 C 130.385 2014.5 125.083 2013.72 123.814 2007.14 C 121.282 1994.01 122.086 1980.15 122.031 1966.8 C 121.813 1914.64 118.987 1862.21 123.14 1810.15 C 123.759 1802.4 128.17 1793.48 132.033 1786.93 C 133.877 1735.55 131.919 1679.9 131.991 1627.89 L 132.114 1558.25 C 132.142 1539.93 132.739 1522.48 130.456 1504.24 z"/>
<path transform="translate(0,0)" fill="url(#Gradient2)" d="M 130.456 1504.24 C 125.16 1484.06 123.43 1459.41 122.419 1438.18 C 119.181 1375.85 123.31 1313.58 123.859 1251.25 C 123.749 1220.89 121.95 1190.46 121.822 1160.1 C 121.787 1151.78 121.613 1136.55 129.993 1132.71 C 132.977 1133.75 132.033 1133.43 134.083 1136.99 C 157.946 1167.66 198.079 1210.81 218.017 1242.42 L 217.904 1251.74 C 218.19 1257.04 218.208 1259.35 217.716 1264.62 C 228.447 1282.51 225.186 1290.02 226.667 1309.02 C 226.996 1319.99 227.708 1344.09 225.784 1354.41 C 226.794 1365.41 225.151 1390.34 217.74 1399.03 C 216.501 1390.88 216.317 1363.3 216.056 1353.66 C 204.779 1357.97 200.804 1363.77 196.113 1374.77 C 200.332 1397.62 197.982 1404.86 178.27 1418.5 C 160.85 1409.01 147.449 1398.54 135.815 1422.87 C 135.13 1424.3 133.83 1426.96 132.823 1428.18 C 132.145 1452.43 134.003 1480.61 130.456 1504.24 z"/>
<path transform="translate(0,0)" fill="rgb(216,192,108)" d="M 130.456 1504.24 C 125.16 1484.06 123.43 1459.41 122.419 1438.18 C 119.181 1375.85 123.31 1313.58 123.859 1251.25 C 123.749 1220.89 121.95 1190.46 121.822 1160.1 C 121.787 1151.78 121.613 1136.55 129.993 1132.71 C 132.977 1133.75 132.033 1133.43 134.083 1136.99 C 130.81 1165.15 130.124 1201.94 129.81 1230.14 C 129.399 1273.35 129.788 1316.56 130.977 1359.76 C 131.384 1375.6 131.009 1414.84 132.823 1428.18 C 132.145 1452.43 134.003 1480.61 130.456 1504.24 z"/>
<path transform="translate(0,0)" fill="rgb(234,219,137)" d="M 217.904 1251.74 C 218.19 1257.04 218.208 1259.35 217.716 1264.62 C 228.447 1282.51 225.186 1290.02 226.667 1309.02 C 226.996 1319.99 227.708 1344.09 225.784 1354.41 C 226.794 1365.41 225.151 1390.34 217.74 1399.03 C 216.501 1390.88 216.317 1363.3 216.056 1353.66 C 215.882 1328.04 214.422 1275.39 217.904 1251.74 z"/>
<path transform="translate(0,0)" fill="rgb(216,192,108)" d="M 226.667 1309.02 C 226.996 1319.99 227.708 1344.09 225.784 1354.41 C 224.647 1347.76 223.504 1314.4 226.667 1309.02 z"/>
<path transform="translate(0,0)" fill="rgb(216,192,108)" d="M 136.071 2013.31 C 130.385 2014.5 125.083 2013.72 123.814 2007.14 C 121.282 1994.01 122.086 1980.15 122.031 1966.8 C 121.813 1914.64 118.987 1862.21 123.14 1810.15 C 123.759 1802.4 128.17 1793.48 132.033 1786.93 C 132.636 1832.31 135.55 1888.2 132.968 1932.18 C 132.797 1945.69 132.398 1959.88 132.785 1973.33 C 132.943 1990.37 132.64 1996.9 136.071 2013.31 z"/>
<path transform="translate(0,0)" fill="rgb(252,252,252)" d="M 214.004 1568.25 C 207.546 1562.18 189.73 1546.46 197.499 1537.33 C 203.757 1534.76 207.582 1537.24 213.945 1539.74 L 214.004 1568.25 z"/>
<path transform="translate(0,0)" fill="rgb(186,185,185)" d="M 132.968 1932.18 C 135.906 1939.87 135.544 1948.68 135.562 1956.96 C 143.828 1957.12 149.724 1957.21 157.936 1958.31 C 150.507 1962.46 139.272 1968.37 132.785 1973.33 C 132.398 1959.88 132.797 1945.69 132.968 1932.18 z"/>
<path transform="translate(0,0)" fill="rgb(252,252,252)" d="M 215.029 1623.93 C 204.824 1627.52 191.718 1623.66 197.71 1611.93 C 204.397 1607.29 209.699 1612.54 215.04 1616.74 L 215.029 1623.93 z"/>
<path transform="translate(0,0)" fill="rgb(252,252,252)" d="M 361.987 1827.51 C 383.115 1828.23 385.174 1837.56 388.621 1855.75 C 372.903 1850.8 366.797 1842.33 361.987 1827.51 z"/>
<path transform="translate(0,0)" fill="rgb(144,166,173)" d="M 194.232 1459.63 C 196.972 1461.48 196.181 1460.43 197.391 1463.44 C 196.104 1469.87 187.929 1475.75 182.84 1480.21 C 182.446 1486.89 183.049 1506.04 179.595 1510.2 C 165.814 1489.97 180.548 1474.22 194.232 1459.63 z"/>
<path transform="translate(0,0)" fill="rgb(252,252,252)" d="M 380.732 1903.89 C 394.601 1907.65 399.447 1910.21 405.569 1923.3 C 389.375 1922.43 384.085 1920.73 380.732 1903.89 z"/>
<path transform="translate(0,0)" fill="rgb(252,252,252)" d="M 182.82 1678.55 C 197.441 1683.36 186.668 1694.6 179.79 1700.3 C 164.256 1697.33 177.386 1684.36 182.82 1678.55 z"/>
<path transform="translate(0,0)" fill="rgb(252,252,252)" d="M 204.97 1642.75 C 216.933 1650.84 203.427 1660.99 196.536 1666.73 C 193.648 1667.21 192.938 1666.66 191.588 1664.45 C 191.512 1656.76 199.968 1648.01 204.97 1642.75 z"/>
<path transform="translate(0,0)" fill="rgb(144,166,173)" d="M 229.05 1900.93 C 240.33 1908.29 226.757 1919.44 220.87 1924.31 C 217.184 1923.32 216.133 1918.54 217.154 1915.23 C 219.29 1908.3 223.203 1904.72 229.05 1900.93 z"/>
<path transform="translate(0,0)" fill="rgb(252,252,252)" d="M 307.668 1859.81 C 312.101 1860.23 316.188 1861.03 316.5 1865.9 C 313.608 1871.67 308.946 1873.49 303.352 1876.31 C 300.346 1877.15 297.726 1878.12 295.63 1875.59 C 296.431 1869.78 303.393 1863.89 307.668 1859.81 z"/>
<path transform="translate(0,0)" fill="rgb(24,25,26)" d="M 0 0 L 1304 0 L 1304 329.549 C 1302.44 322.907 1302.93 269.54 1302.85 258.919 L 1301.77 50.2852 C 1302.61 33.441 1302.34 18.9469 1301.86 2.15392 C 1253.92 2.93624 1203.86 2.23124 1155.77 2.255 L 1103.11 1.99542 C 1089.16 1.95082 1074.87 -0.160296 1062.76 7.27924 L 1058.17 7.77836 C 994.329 9.82188 930.447 10.1725 866.589 8.82998 C 783.565 7.92488 700.535 7.64793 617.507 7.99915 L 241.873 8.05479 L 237.223 7.81571 C 230.242 6.56094 221.174 6.90013 213.945 6.89585 C 196.634 7.29441 183.257 7.40646 165.98 6.75454 C 158.539 6.91123 149.902 6.87495 142.583 7.576 C 127.082 7.8929 111.578 8.03187 96.0734 7.99287 L 33.2712 7.92995 C 22.181 8.01961 11.0904 8.03716 0 7.98262 L 0 2.39253 L 0 0 z"/>
<path transform="translate(0,0)" fill="url(#Gradient1)" d="M 0 2.39253 L 569.858 2.49303 L 753.019 2.48665 C 782.281 2.4824 811.797 2.39346 841.081 2.42624 C 844.56 2.43013 858.835 5.80097 862.363 7.61542 C 863.774 8.3407 864.983 8.48328 866.589 8.82998 C 783.565 7.92488 700.535 7.64793 617.507 7.99915 L 241.873 8.05479 L 237.223 7.81571 C 230.242 6.56094 221.174 6.90013 213.945 6.89585 C 196.634 7.29441 183.257 7.40646 165.98 6.75454 C 158.539 6.91123 149.902 6.87495 142.583 7.576 C 127.082 7.8929 111.578 8.03187 96.0734 7.99287 L 33.2712 7.92995 C 22.181 8.01961 11.0904 8.03716 0 7.98262 L 0 2.39253 z"/>
<path transform="translate(0,0)" fill="rgb(252,252,252)" d="M 871.591 318.462 C 907.142 347.19 895.107 456.645 885.43 495.828 C 864.222 581.704 794.254 635.999 721.917 679.231 C 735.692 642.596 757.2 579.837 727.771 545.268 C 692.17 503.448 621.054 530.995 581.204 551.374 C 576.556 553.751 571.451 556.998 566.109 556.572 L 564.904 555.137 L 565.475 551.718 C 576.16 525.84 595.411 500.028 600.387 471.883 C 608.851 423.998 596.019 402.472 571.174 365.523 C 598.945 377.463 633.696 393.413 661.914 402.706 C 689.27 411.716 724.815 419.196 753.493 425.983 C 718.556 433.499 689.512 437.542 654.254 443.126 C 663.718 445.502 675.793 446.133 685.373 446.723 C 743.411 450.299 807.757 438.703 843.862 388.501 C 859.403 366.891 864.8 343.909 871.591 318.462 z"/>
<path transform="translate(0,0)" fill="rgb(252,252,252)" d="M 837.375 950.48 C 848.349 958.492 855.292 979.21 857.901 992.406 C 867.288 1039.9 858.584 1091.52 841.542 1136.27 C 811.573 1147.07 775.533 1158.76 749.766 1177.55 C 736.01 1188.65 715.8 1202.62 711.482 1220.6 C 709.982 1226.85 716.008 1231.09 721.668 1231.25 C 744.707 1231.91 769.912 1209.88 786.799 1196.31 C 752.22 1265.76 755.625 1246.37 694.543 1254.46 C 653.64 1259.87 587.296 1353.65 562.93 1389.41 C 563.658 1443.67 540.538 1425.68 503.797 1412.54 C 497.434 1417.17 489.46 1428.09 481.953 1428.77 C 472.361 1429.63 467.716 1405.11 468.312 1398.61 C 470.908 1370.26 509.221 1373.19 528.151 1363.37 C 540.721 1356.84 552.274 1345.47 562.665 1336.03 C 604.835 1296.43 639.565 1262.48 673.403 1215.65 C 645.642 1234.23 624.201 1258.16 600.897 1281.74 C 580.543 1302.46 565.89 1316.1 543.047 1335.33 C 535.579 1341.62 494.368 1375.82 480.477 1359.46 C 479.257 1358.02 480.831 1353.02 482.521 1351.35 C 489.285 1344.66 499.612 1341.75 507.38 1336.34 C 515.509 1330.3 523.244 1323.62 530.988 1317.07 C 555.777 1296.1 581.107 1276.18 603.48 1252.58 C 626.735 1228.05 642.197 1201.98 657.599 1172.32 C 684.033 1170.37 692.987 1158.29 711.703 1141.78 C 771.526 1089.01 807.919 1023.35 837.375 950.48 z"/>
<path transform="translate(0,0)" fill="rgb(252,252,252)" d="M 485.98 951.609 C 499.172 962.143 525.019 1027.7 537.906 1046.3 C 569.394 1091.74 607.865 1130.82 646.664 1169.75 C 639.205 1182.8 632.355 1196.31 625.433 1209.67 C 622.453 1215.11 613.008 1210.88 610.466 1207.68 C 576.779 1165.24 545.451 1153.25 492.468 1139.19 C 458.576 1072.44 465.99 1020.85 485.98 951.609 z"/>
<path transform="translate(0,0)" fill="rgb(252,252,252)" d="M 655.125 547.199 C 658.105 546.717 659.337 546.188 661.986 547.301 C 662.293 548.994 661.968 550.001 660.554 551.253 C 600.064 604.82 544.776 665.39 523.078 745.478 C 515.754 772.51 511.328 801.644 506.502 830.068 C 474.351 814.597 446.572 791.343 425.684 762.417 C 427.94 759.192 430.585 756.082 433.078 753.021 C 452.524 734.56 484.825 714.71 507.493 696.092 C 490.726 700.236 474.081 704.857 457.577 709.948 C 481.27 666.999 501.189 660.443 541.503 638.737 C 527.623 636.687 518.665 636.727 504.636 637.092 C 550.597 580.783 586.381 563.696 655.125 547.199 z"/>
<path transform="translate(0,0)" fill="rgb(252,252,252)" d="M 674.682 1271.33 C 683.035 1270.7 694.186 1270.83 702.75 1270.69 C 732.023 1301.43 767.92 1341.46 804.119 1364.03 C 820.299 1371.22 836.561 1370.1 852.458 1378.52 C 869.04 1387.3 859.539 1427.55 846.199 1429.83 C 824.504 1395.79 808.072 1425.75 781.341 1429.09 C 766.146 1430.99 766.217 1397.85 766.083 1387.25 C 746.594 1360.59 723.647 1334.79 703.189 1308.8 C 696.161 1299.87 679.267 1280.54 674.682 1271.33 z"/>
<path transform="translate(0,0)" fill="rgb(252,252,252)" d="M 728.899 1264.52 C 753.814 1269.68 785.495 1306.87 805.891 1322.05 C 820.856 1333.19 837.753 1342.49 851.789 1354.85 C 851.297 1359.17 850.193 1362.09 848.853 1366.21 C 841.815 1364.9 831.242 1363.74 824.783 1361.47 C 802.165 1353.53 735.11 1292.15 725.669 1272.73 C 725.501 1269.45 727.175 1267.47 728.899 1264.52 z"/>
<path transform="translate(0,0)" fill="rgb(252,252,252)" d="M 548.681 1205.28 C 556.698 1207.66 592.818 1227.47 603.311 1232.77 C 601.843 1235.64 599.433 1239.3 597.69 1242.12 C 571.367 1260.45 556.473 1225.04 548.681 1205.28 z"/>
</svg>